Coordinates
version=1
nRows=29
nColumns=24
inDegrees=yes

Units are S.I. units (second, meters, Newtons, ...)
Angles are in degrees.

endheader
time	pelvis_tilt	pelvis_list	pelvis_rotation	pelvis_tx	pelvis_ty	pelvis_tz	hip_flexion_r	hip_adduction_r	hip_rotation_r	knee_angle_r	ankle_angle_r	subtalar_angle_r	mtp_angle_r	hip_flexion_l	hip_adduction_l	hip_rotation_l	knee_angle_l	ankle_angle_l	subtalar_angle_l	mtp_angle_l	lumbar_extension	lumbar_bending	lumbar_rotation
      3.46000000	     25.42724042	      1.10273087	      1.78091410	      0.62382808	      1.02488664	     -0.01592904	    -31.52943389	     -4.11450337	    -12.59163662	    -36.11495548	     -2.24993903	     -1.11437544	     55.73398151	     -7.56976360	      2.07778327	     -2.56558288	    -18.14174065	      3.03926711	     -5.75653168	      5.95136955	    -38.69236272	     -2.95160428	      1.12027982
      3.46500000	     25.44535895	      1.24414292	      1.54639409	      0.62931568	      1.02527173	     -0.01653465	    -30.80225170	     -4.66938258	    -12.54490869	    -37.57576462	     -2.94662466	     -1.50464482	     55.69458083	     -7.82887932	      2.31811707	     -2.68215969	    -18.38424254	      3.39471657	     -5.85216869	      5.89768745	    -38.64394170	     -3.23562328	      1.15209603
      3.47000000	     25.39276201	      1.27057827	      1.32677572	      0.63464112	      1.02556524	     -0.01704448	    -29.95682108	     -5.07452519	    -12.37746459	    -39.01709767	     -3.51075368	     -2.09874466	     55.68801036	     -7.98296654	      2.41734612	     -2.83977932	    -18.67075904	      3.93159090	     -5.77344922	      5.76241171	    -38.52966091	     -3.41538922	      1.27282670
      3.47500000	     25.39708032	      1.30966068	      1.12149739	      0.63998689	      1.02595863	     -0.01749749	    -29.19803882	     -5.46839720	    -12.24087164	    -40.36895878	     -4.00735107	     -2.75372552	     55.83189278	     -8.22727123	      2.49964645	     -3.11030200	    -18.91931608	      4.63090753	     -5.34480356	      4.62530564	    -38.47260321	     -3.59866841	      1.34616461
      3.48000000	     25.40761894	      1.40089528	      0.85731518	      0.64525061	      1.02641306	     -0.01797214	    -28.42236714	     -5.94962436	    -12.07323922	    -41.70841963	     -4.37616781	     -3.29234299	     55.77365176	     -8.54608858	      2.68319915	     -3.31356838	    -19.00529992	      4.93258222	     -5.38223646	      4.57022014	    -38.42893391	     -3.85051752	      1.42519916
      3.48500000	     25.37290546	      1.33011407	      0.58842745	      0.65036949	      1.02683730	     -0.01826372	    -27.56144197	     -6.22001014	    -11.73332266	    -42.98978555	     -4.66394448	     -4.01288892	     55.60448980	     -8.79388364	      2.66196016	     -3.63975438	    -19.13535910	      5.47368324	     -5.08554002	      4.34260359	    -38.34148228	     -3.96933765	      1.63742568
      3.49000000	     25.38231829	      1.30949610	      0.30346735	      0.65543953	      1.02732330	     -0.01857674	    -26.75373943	     -6.55134771	    -11.44626581	    -44.22327019	     -4.78758935	     -4.68605742	     55.42242171	     -9.12367788	      2.70952097	     -3.96883934	    -19.18825193	      5.88348962	     -4.93637947	      4.17892113	    -38.30622972	     -4.13397861	      1.83197065
      3.49500000	     25.39452077	      1.27081945	      0.01549084	      0.66045825	      1.02785778	     -0.01884320	    -25.94838326	     -6.84493874	    -11.13344734	    -45.38854386	     -4.84362246	     -5.35870211	     55.20852922	     -9.49108508	      2.73867042	     -4.28838118	    -19.16749519	      6.25604188	     -4.71025995	      4.04879106	    -38.27627385	     -4.28378161	      2.03791930
      3.50000000	     25.43909027	      1.20379579	     -0.27553508	      0.66542529	      1.02845278	     -0.01903555	    -25.17948955	     -7.08906085	    -10.80244682	    -46.49540353	     -4.72599601	     -5.88940911	     53.38004556	     -9.89901151	      2.72588889	     -4.69947045	    -19.14697134	      6.83329811	     -4.32677343	      2.47612714	    -38.28275499	     -4.41136902	      2.24513657
      3.50500000	     25.43326377	      1.17511577	     -0.53373451	      0.67030133	      1.02899552	     -0.01932871	    -24.35711253	     -7.36317937	    -10.54341619	    -47.54783801	     -4.61007010	     -6.49541687	     53.32715765	    -10.25796839	      2.77287380	     -4.99243819	    -19.08043703	      7.10161500	     -4.20329150	      2.47491525	    -38.24918848	     -4.54592999	      2.39000035
      3.51000000	     25.42391970	      1.01309221	     -0.82932635	      0.67508165	      1.02957792	     -0.01948230	    -23.50870463	     -7.47541857	    -10.13957194	    -48.51991237	     -4.52236958	     -7.10197702	     53.15389128	    -10.62497308	      2.67290493	     -5.38347447	    -19.00165453	      7.48754655	     -3.93373595	      2.45403626	    -38.21361003	     -4.58270042	      2.69725994
      3.51500000	     25.44101136	      0.91324527	     -1.11974923	      0.67986442	      1.03020352	     -0.01964720	    -22.70951789	     -7.64486179	     -9.80253242	    -49.42417824	     -4.32585901	     -7.64376508	     52.94469566	    -11.05401961	      2.65195561	     -5.72944477	    -18.84750338	      7.75620098	     -3.73541344	      2.42267254	    -38.20646325	     -4.67034302	      2.92847980
      3.52000000	     25.46212915	      0.82803522	     -1.36998306	      0.68457168	      1.03084134	     -0.01985447	    -21.93002273	     -7.80089149	     -9.51700127	    -50.25898626	     -4.03967780	     -8.12779769	     52.77076134	    -11.47604214	      2.64587139	     -6.04111193	    -18.70200378	      7.99327297	     -3.60073343	      2.40936827	    -38.21556189	     -4.74576583	      3.09530729
      3.52500000	     25.44876053	      0.62503151	     -1.64364228	      0.68924581	      1.03146314	     -0.01996470	    -21.10363068	     -7.81008338	     -9.12938923	    -51.01557892	     -3.80129801	     -8.51575670	     52.23973198	    -11.87391171	      2.50980064	     -6.42787599	    -18.55149952	      8.37110391	     -3.30509494	      2.33859319	    -38.18635272	     -4.72571659	      3.38555921
      3.53000000	     25.46436566	      0.52552901	     -1.88026211	      0.69389775	      1.03210939	     -0.02013806	    -20.32959480	     -7.91670638	     -8.86608496	    -51.73350970	     -3.38510674	     -8.76102546	     50.30855052	    -12.31011722	      2.48925474	     -6.72082977	    -18.36744199	      8.66189545	     -3.02625252	      1.90219687	    -38.19480449	     -4.77879050	      3.57406689
      3.53500000	     25.48452083	      0.40009344	     -2.11498597	      0.69851160	      1.03278599	     -0.02035702	    -19.57695751	     -7.98516064	     -8.59057153	    -52.34868750	     -3.01355941	     -9.00183972	     50.23543696	    -12.77317859	      2.46995112	     -6.92977487	    -18.12591001	      8.78105538	     -3.07710542	      1.88221353	    -38.21110254	     -4.79779970	      3.78968222
      3.54000000	     25.48641653	      0.25852603	     -2.32689756	      0.70309468	      1.03343149	     -0.02054666	    -18.81456740	     -8.00716542	     -8.33160680	    -52.89794383	     -2.65663506	     -9.23716320	     50.09377507	    -13.20163905	      2.41675267	     -7.16370190	    -17.91948866	      8.98628631	     -2.95606245	      1.87975591	    -38.21473878	     -4.79074422	      3.97911513
      3.54500000	     25.48688566	      0.07896878	     -2.48286180	      0.70765031	      1.03407983	     -0.02071195	    -18.07977222	     -7.93885327	     -8.10133456	    -53.36078513	     -2.24969131	     -9.40155687	     49.50943821	    -13.61492713	      2.29845486	     -7.38870739	    -17.74530384	      9.25159608	     -2.72615731	      1.81692877	    -38.22290686	     -4.72433293	      4.14120818
      3.55000000	     25.53866585	     -0.01486683	     -2.64758124	      0.71227804	      1.03478339	     -0.02098556	    -17.42700035	     -7.98488218	     -7.94464841	    -53.74838471	     -1.86129154	     -9.53208276	     49.37242608	    -14.13216866	      2.31131111	     -7.50585313	    -17.45972904	      9.35914917	     -2.76357595	      1.79901476	    -38.27664960	     -4.72844401	      4.26408758
      3.55500000	     25.57480747	     -0.15926715	     -2.75684242	      0.71688170	      1.03546534	     -0.02122668	    -16.78249772	     -7.92645672	     -7.80867597	    -54.06832416	     -1.36272198	     -9.52955182	     47.63664824	    -14.61162960	      2.23981976	     -7.63233437	    -17.22542139	      9.58023828	     -2.64324394	      1.58536808	    -38.32150354	     -4.66195508	      4.36646272
      3.56000000	     25.60755307	     -0.28399876	     -2.82532644	      0.72149250	      1.03614001	     -0.02155918	    -16.16528788	     -7.87612971	     -7.73267298	    -54.29799616	     -0.94371087	     -9.56955511	     47.62201313	    -15.08926981	      2.19171356	     -7.66556530	    -16.97493513	      9.71982405	     -2.63084973	      1.59072059	    -38.36524718	     -4.58303736	      4.42527345
      3.56500000	     25.64619005	     -0.39893202	     -2.82297743	      0.72612211	      1.03682037	     -0.02196266	    -15.59619679	     -7.80493437	     -7.74708736	    -54.43816779	     -0.55653822	     -9.67348661	     47.61340973	    -15.57086052	      2.13819802	     -7.60195634	    -16.72406397	      9.87323674	     -2.62030356	      1.60380183	    -38.41817009	     -4.47256040	      4.42687597
      3.57000000	     25.68198160	     -0.51593016	     -2.82477347	      0.73079072	      1.03748997	     -0.02232226	    -15.04107835	     -7.71897970	     -7.75819135	    -54.51380712	     -0.15617320	     -9.74256707	     47.58913950	    -16.05864919	      2.07884002	     -7.56816167	    -16.46110694	     10.00885185	     -2.60438760	      1.61523242	    -38.46298499	     -4.36498369	      4.42355368
      3.57500000	     25.74128088	     -0.63529580	     -2.81806634	      0.73551065	      1.03817273	     -0.02270336	    -14.54154030	     -7.62356055	     -7.78596678	    -54.51092853	      0.28203310	     -9.74510690	     47.49892121	    -16.58244866	      2.01491367	     -7.57887002	    -16.18313538	     10.14612199	     -2.57664878	      1.62597933	    -38.52851900	     -4.24541885	      4.40638848
      3.58000000	     25.79138206	     -0.74218010	     -2.76383941	      0.74017142	      1.03882441	     -0.02312419	    -14.04685763	     -7.51301243	     -7.85686825	    -54.45506642	      0.66900671	     -9.80616030	     47.44265051	    -17.08763130	      1.95333266	     -7.45246347	    -15.90808411	     10.27351593	     -2.54316426	      1.63762921	    -38.59384183	     -4.11185488	      4.38186615
      3.58500000	     25.85279092	     -0.85297853	     -2.67646813	      0.74489778	      1.03947646	     -0.02359057	    -13.60543206	     -7.38561938	     -7.97351178	    -54.31274414	      1.08302917	     -9.84412912	     47.36424374	    -17.61149784	      1.87674323	     -7.33729624	    -15.62478821	     10.40383430	     -2.52287372	      1.64915893	    -38.66593392	     -3.95115167	      4.31285145
      3.59000000	     26.04193528	     -0.99381209	     -2.54475701	      0.74971800	      1.04030782	     -0.02408463	    -13.36787786	     -7.21149966	     -8.14334453	    -54.05808611	      1.58115082	     -9.62802313	     44.93244903	    -18.31448382	      1.76267090	     -7.21589208	    -15.27587625	     10.51696683	     -2.54110662	      1.63346484	    -38.86406573	     -3.74456453	      4.22533218
      3.59500000	     26.08990277	     -1.05372174	     -2.35671297	      0.75448406	      1.04088627	     -0.02465264	    -12.97298772	     -7.10881715	     -8.39812747	    -53.79295957	      2.01133590	     -9.57549477	     44.87346965	    -18.80813159	      1.69753424	     -6.99828244	    -15.00832691	     10.64628030	     -2.45108649	      1.64929566	    -38.92350848	     -3.57170357	      4.02803929
      3.60000000	     26.19639323	     -1.15118786	     -2.16911272	      0.75926404	      1.04154011	     -0.02520549	    -12.67255655	     -6.95249905	     -8.63716727	    -53.43498638	      2.38549489	     -9.57699509	     44.74487072	    -19.39015686	      1.59840665	     -6.78722985	    -14.69829879	     10.75508820	     -2.44902497	      1.65789200	    -39.04263342	     -3.36511365	      3.87377704
